<svg width="30" height="30" viewBox="0 0 30 30" fill="none" xmlns="http://www.w3.org/2000/svg">
<path d="M12.5625 23.7376V5.9626C12.5625 4.2751 11.85 3.6001 10.05 3.6001H5.5125C3.7125 3.6001 3 4.2751 3 5.9626V23.7376C3 25.4251 3.7125 26.1001 5.5125 26.1001H10.05C11.85 26.1001 12.5625 25.4251 12.5625 23.7376Z" stroke="#DFDFEC" stroke-width="3" stroke-linecap="round" stroke-linejoin="round"/>
<path d="M26.9629 23.7376V5.9626C26.9629 4.2751 26.2504 3.6001 24.4504 3.6001H19.9129C18.1254 3.6001 17.4004 4.2751 17.4004 5.9626V23.7376C17.4004 25.4251 18.1129 26.1001 19.9129 26.1001H24.4504C26.2504 26.1001 26.9629 25.4251 26.9629 23.7376Z" stroke="#DFDFEC" stroke-width="3" stroke-linecap="round" stroke-linejoin="round"/>
</svg>
